<svg viewBox="0 0 240 310" xmlns="http://www.w3.org/2000/svg" xmlns:bx="https://boxy-svg.com">
	<defs>
		<radialGradient gradientUnits="userSpaceOnUse" cx="157.437" cy="301.941" r="156.09" id="gradient-0" gradientTransform="matrix(0.297097, 0.312374, -0.308425, 0.278357, 93.582369, 69.838)">
			<stop offset="0" style="stop-color: rgba(255, 0, 0, 1)"></stop>
			<stop offset="1" style="stop-color: rgb(117, 0, 0);"></stop>
		</radialGradient>
		<radialGradient gradientUnits="userSpaceOnUse" cx="208.862" cy="291.942" r="34.381" id="gradient-2" gradientTransform="matrix(0.633461, 0.001432, -0.001488, 0.658067, -92.21269, 11.996493)">
			<stop offset="0" style="stop-color: rgba(216, 216, 216, 1)"></stop>
			<stop offset="1" style="stop-color: rgba(255, 255, 255, 0);"></stop>
		</radialGradient>
		<linearGradient gradientUnits="userSpaceOnUse" x1="208.169" y1="45.773" x2="208.169" y2="224.782" id="gradient-1" gradientTransform="matrix(-0.179039, -1.066098, 0.243024, -0.015194, 127.414584, 318.192453)">
			<stop offset="0" style="stop-color: rgb(147, 98, 58);"></stop>
			<stop offset="1" style="stop-color: rgb(24, 17, 6);"></stop>
		</linearGradient>
		<radialGradient gradientUnits="userSpaceOnUse" cx="203.209" cy="307.516" r="156.09" id="gradient-3" gradientTransform="matrix(0.343021, 0.377356, -0.345415, 0.296438, 172.374102, 63.413455)">
			<stop offset="0" style="stop-color: rgba(255, 0, 0, 1)"></stop>
			<stop offset="1" style="stop-color: rgb(103, 0, 0);"></stop>
		</radialGradient>
		<radialGradient gradientUnits="userSpaceOnUse" cx="208.862" cy="291.942" r="34.381" id="gradient-4" gradientTransform="matrix(0.696912, 0.001572, -0.001637, 0.722245, -23.324392, 13.704394)">
			<stop offset="0" style="stop-color: rgba(216, 216, 216, 1)"></stop>
			<stop offset="1" style="stop-color: rgba(255, 255, 255, 0);"></stop>
		</radialGradient>
		<linearGradient gradientUnits="userSpaceOnUse" x1="208.169" y1="45.773" x2="208.169" y2="224.782" id="gradient-5" gradientTransform="matrix(-0.07854, -1.094724, 0.218504, -0.015601, 147.735461, 331.101962)">
			<stop offset="0" style="stop-color: rgb(147, 98, 58);"></stop>
			<stop offset="1" style="stop-color: rgb(24, 17, 6);"></stop>
		</linearGradient>
	</defs>
	<path style="fill: url(#gradient-0);" d="M 76.571 171.11 C 60.479 171.11 41.541 154.091 19.379 171.11 C -4.314 189.303 0.426 245.686 14.994 260.548 C 44.564 290.714 60.808 284.237 78.597 284.194 C 95.878 284.152 121.314 270.18 133.008 258.815 C 147.72 244.518 160.633 203.166 139.687 182.087 C 115.123 157.367 102.062 171.11 76.571 171.11 Z"></path>
	<ellipse style="fill: url(#gradient-2);" cx="39.659" cy="204.414" rx="34.381" ry="33.304"></ellipse>
	<path style="fill: url(#gradient-1);" d="M 87.877 2.587 C 87.877 2.587 121.34771339384 22.453416641729397 129.854 35.459 C 137.15017714539337 46.614401229063276 139.08833592951638 60.28082437990216 139.634 73.446 C 140.21399830880577 87.43955392415809 134.64308750101435 102.2801933249966 132.174 117.131 C 129.6086906619023 132.56055161614105 124.64584774561341 150.57977849508066 124.535 164.356 C 124.44894911792346 175.05045305919035 130.76729441174461 189.90176663547408 128.68 192.886 C 127.94629230920569 193.93499191908802 126.23084098214261 194.31317115274868 125.193 193.614 C 121.98966020634171 191.45597886312612 119.05792538358845 173.792567397413 119.141 160.222 C 119.27110262807317 138.96922076234176 133.5377779042611 94.70575537863955 134.986 78.511 C 135.59072033519266 71.74870992740021 135.77459137264827 69.32561065572172 134.795 64 C 133.50828413711136 57.00468756501999 130.20097686291462 46.74707357936317 126.194 40.485 C 122.83212875110725 35.23109266657979 118.77146658376562 32.10106557258864 113.701 28.052 C 107.3635502141391 22.99117387640463 94.27439050386697 18.680028910130517 90.442 13.316 C 88.01623882665234 9.920768472894498 87.877 2.587 87.877 2.587 C 87.87699999999998 2.5869999999999997 87.877 2.587 87.877 2.587 C 87.877 2.587 87.877 2.5869999999999997 87.877 2.587" transform="matrix(0.873467, 0.486883, -0.486883, 0.873467, 62.246527, -42.960429)" bx:d="M 87.877 2.587 R 129.854 35.459 R 139.634 73.446 R 132.174 117.131 R 124.535 164.356 R 128.68 192.886 R 125.193 193.614 R 119.141 160.222 R 134.986 78.511 R 134.795 64 R 126.194 40.485 R 113.701 28.052 R 90.442 13.316 R 87.877 2.587 R 87.877 2.587 Z 1@226a000a"></path>
	<path d="M 67.095 52.599 C 67.095 52.599 92.457 70.965 98.446 82.458 C 103.827 92.782 104.129 105.203 103.705 117.01 C 103.244 129.829 97.743 143.18 94.772 156.549 C 91.672 170.504 86.486 186.689 85.475 199.126 C 84.703 208.64 88.85 222.345 86.738 225.152 C 86.347 225.671 85.681 226.07 85.081 226.212 C 84.474 226.355 83.707 226.269 83.215 225.911 C 80.534 223.959 79.502 207.516 80.465 195.315 C 81.991 175.967 96.415 136.087 98.663 121.49 C 99.6 115.402 99.925 113.301 99.496 108.506 C 98.937 102.266 97.111 93.105 94.296 87.45 C 92.022 82.88 89.088 80.034 85.292 76.358 C 80.676 71.887 70.487 67.758 67.68 62.945 C 65.789 59.702 66.37 53.256 66.37 53.256 C 66.337 53.111 67.267 52.897 67.234 52.752 C 67.234 52.752 66.796 59.444 68.544 62.441 C 71.197 66.99 81.237 71.038 85.988 75.64 C 89.784 79.316 92.843 82.285 95.192 87.004 C 98.065 92.776 99.929 102.123 100.492 108.416 C 100.932 113.332 100.588 115.555 99.651 121.642 C 97.389 136.335 82.978 176.178 81.461 195.393 C 80.504 207.526 81.434 223.378 83.803 225.103 C 84.094 225.314 84.406 225.344 84.851 225.239 C 85.304 225.132 85.661 224.919 85.938 224.55 C 87.808 222.066 83.691 208.743 84.479 199.046 C 85.498 186.495 90.705 170.243 93.796 156.333 C 96.785 142.879 102.251 129.619 102.705 116.974 C 103.129 105.197 102.838 93.049 97.56 82.92 C 91.674 71.625 66.509 53.409 66.509 53.409 L 67.095 52.599 Z" style="fill: none;"></path>
	<path style="fill: url(#gradient-3);" d="M 156.051 191.515 C 144.68 192.116 115.109 171.253 90.802 189.875 C 64.816 209.781 77.512 260.06 92.765 277.001 C 105.079 290.679 113.605 307.087 162.544 308.256 C 195.969 309.055 210.734 289.115 223.56 276.68 C 239.696 261.037 243.457 211.399 220.484 188.336 C 193.542 161.288 167.354 190.916 156.051 191.515 Z"></path>
	<ellipse style="fill: url(#gradient-4);" cx="121.756" cy="224.888" rx="37.825" ry="36.552"></ellipse>
	<path style="fill: url(#gradient-5);" d="M 135.935 3.52 C 135.935 3.52 164.2902546974612 24.34602933958953 170.959 37.275 C 176.9639273910697 48.91699958686056 177.27342602491137 62.870496441913595 176.797 76.281 C 176.28268730785456 90.75794254164323 170.1297119604307 105.88963255897151 166.785 121.14 C 163.3102966426244 136.98306917171084 157.47683844788872 155.42689628138524 156.337 169.632 C 155.46042789942456 180.55617756970852 160.11743309547217 195.92759808574766 157.864 198.929 C 157.11253359113434 199.92989624253656 155.56646224665937 200.31345544702322 154.688 199.675 C 151.83522146942843 197.6016360063615 150.75194836867232 179.22570602449048 151.831 165.388 C 153.5404939842382 143.46553167898227 169.72437417687047 98.13623375207139 172.255 81.484 C 173.3073669991937 74.55912746318697 173.6816473425719 72.10286553127351 173.193 66.58 C 172.5626108453516 59.45511824955019 170.4995462613111 48.93620973031269 167.301 42.435 C 164.70636895246008 37.161278992155886 161.3457189706648 33.85127906883116 157.08 29.668 C 151.82491277054797 24.51447334645613 140.47294104412086 19.846750129798107 137.405 14.537 C 135.35199409206436 10.983819469680753 135.935 3.52 135.935 3.52 C 135.93499999999997 3.5199999999999996 135.935 3.52 135.935 3.52 C 135.935 3.52 135.935 3.5199999999999996 135.935 3.52" bx:d="M 135.935 3.52 R 170.959 37.275 R 176.797 76.281 R 166.785 121.14 R 156.337 169.632 R 157.864 198.929 R 154.688 199.675 R 151.831 165.388 R 172.255 81.484 R 173.193 66.58 R 167.301 42.435 R 157.08 29.668 R 137.405 14.537 R 135.935 3.52 R 135.935 3.52 Z 1@676babb7"></path>
</svg>