<svg id="terrain" preserveAspectRatio="none" viewBox="19.026 65.449 445.205 370.624" xmlns="http://www.w3.org/2000/svg">
    <!--
        started from a drawing at https://boxy-svg.com/app
    -->
    <defs>
        <pattern id="pattern-0" x="0" y="0" width="25" height="25" patternUnits="userSpaceOnUse" viewBox="0 0 100 100">
            <rect x="0" y="0" width="50" height="100" style="fill: black;"></rect>
        </pattern>
        <linearGradient id="sky-gradient" gradientUnits="userSpaceOnUse" x1="241.248" y1="61.644" x2="241.248"
            y2="451.294" gradientTransform="matrix(-0.999916, 0.013029, -0.007812, -0.599609, 490.567647, 329.10105)">
            <stop offset="0" stop-color="var(--color-stop-1)"></stop>
            <stop offset="1" stop-color="var(--color-stop-2)"></stop>
        </linearGradient>
        <linearGradient id="gradient-8" gradientUnits="userSpaceOnUse" x1="297.945" y1="90.863" x2="297.945"
            y2="158.461" gradientTransform="matrix(-1.005051, 0.010984, -0.000056, -1.841671, 646.758671, 404.433709)">
            <stop offset="0" style="stop-color: rgb(176, 176, 176);"></stop>
            <stop offset="1" style="stop-color: rgb(255, 255, 255);"></stop>
        </linearGradient>
        <linearGradient id="gradient-1" gradientUnits="userSpaceOnUse" x1="297.945" y1="90.863" x2="297.945"
            y2="158.461" gradientTransform="matrix(-0.701044, -0.005087, -0.004486, 0.977259, 278.971671, 61.219432)">
            <stop offset="0" style="stop-color: rgb(171, 171, 171);"></stop>
            <stop offset="1" style="stop-color: rgb(255, 255, 255);"></stop>
        </linearGradient>
        <filter id="big-blur">
            <feGaussianBlur in="SourceGraphic" stdDeviation="4"></feGaussianBlur>
        </filter>
        <filter id="blur">
            <feGaussianBlur in="SourceGraphic" stdDeviation="3"></feGaussianBlur>
        </filter>
        <filter id="noise" x="0%" y="0%" width="100%" height="100%">
            <feTurbulence baseFrequency="0.01 0.4" result="NOISE" numOctaves="2" />
            <feDisplacementMap in="SourceGraphic" in2="NOISE" scale="20" xChannelSelector="R" yChannelSelector="R"></feDisplacementMap>
        </filter>
        <filter id='noise-blur' x='-100%' y='-100%' width='300%' height="300%">
            <feTurbulence type="fractalNoise" baseFrequency='30' result='noise' numOctaves="4" />
            <feDisplacementMap in="SourceGraphic" in2="noise" scale="20" result='displace' xChannelSelector="R" yChannelSelector="R"></feDisplacementMap>
            <feGaussianBlur in="displace" stdDeviation="1.5"></feGaussianBlur>
        </filter>
        <filter id='noise-blur-lite' x='-100%' y='-100%' width='300%' height="300%">
            <feTurbulence type="fractalNoise" baseFrequency='20' result='noise' numOctaves="4" />
            <feDisplacementMap in="SourceGraphic" in2="noise" scale="1" result='displace' xChannelSelector="R" yChannelSelector="R"></feDisplacementMap>
            <feGaussianBlur in="displace" stdDeviation="0.6"></feGaussianBlur>
        </filter>
    </defs>
    <rect id="sky" x="14.46" y="61.644" width="453.577" height="389.65"></rect>

    <path id="right-cloud"
        d="M 534.919 203.859 C 534.919 198.495 528.838 194.688 524.976 192.831 C 513.009 187.08 497.256 183.173 487.499 197.243 C 485.636 199.929 476.791 209.373 476.791 209.373 C 476.791 209.373 483.435 206.823 480.615 202.757 C 479.597 201.287 477.253 199.011 476.026 197.243 C 475.549 196.553 466.441 194.523 465.319 196.14 C 463.79 198.343 465.769 204.313 464.554 206.065 C 463.059 208.221 459.45 203.245 458.435 202.757 C 450.923 199.147 452.334 197.266 448.492 191.729 C 443.797 184.958 440.123 202.725 438.549 203.859 C 432.426 208.275 415.806 195.849 411.015 202.757 C 409.808 204.498 407.986 222.652 402.602 214.889 C 400.528 211.898 393.754 215.364 391.894 212.682 C 389.828 209.702 390.409 201.836 381.088 195.114 C 367.007 184.96 356.442 196.347 353.633 200.396 C 352.479 202.061 368.815 172.851 355.182 159.746 C 352.31 156.984 350.452 154.551 347.533 152.027 C 344.257 149.192 332.895 141.586 315.517 150.471 C 295.122 160.899 304.702 197.243 304.702 197.243 C 304.702 197.243 303.463 188.35 301.647 188.42 C 287.81 188.957 284.805 200.783 283.275 202.989 C 281.16 206.039 286.329 189.353 276.358 185.112 C 261.614 178.84 257.948 197.244 255.783 200.364 C 250.976 207.295 240.652 196.959 235.102 204.962 C 232.955 208.058 226.566 209.727 225.159 213.786 C 224.676 215.177 215.186 214.932 214.452 215.992 C 209.569 223.033 202.884 215.509 196.095 220.403 C 194.273 221.717 183.567 225.917 181.564 225.917 C 180.034 225.917 154.794 232.535 156.324 232.535 C 170.601 232.535 359.389 231.431 399.543 231.431 C 417.613 231.431 540.109 233.636 549.452 233.636 C 552.766 233.636 554.363 195.27 549.451 191.729 C 544.216 187.954 544.713 195.696 541.038 198.345 C 539.555 199.415 536.449 208.427 536.449 206.065 L 534.919 203.859 Z">
    </path>
    <path id="left-cloud"
        d="M 201.334 167.035 C 201.334 165.79 203.5 170.539 204.535 171.103 C 207.098 172.499 206.752 176.579 210.403 174.59 C 213.83 172.723 212.715 152.507 210.403 152.507 C 203.887 152.507 118.439 153.669 105.834 153.669 C 77.824 153.669 -53.868 153.087 -63.827 153.087 C -64.895 153.087 -47.287 156.574 -46.22 156.574 C -44.822 156.574 -37.355 158.787 -36.084 159.48 C -31.348 162.059 -26.685 158.094 -23.278 161.804 C -22.766 162.363 -16.147 162.234 -15.811 162.967 C -14.829 165.106 -10.372 165.985 -8.874 167.616 C -5.003 171.834 6.446 169.194 9.799 172.846 C 11.308 174.49 13.932 185.136 24.949 186.447 C 37.842 187.981 42.534 172.988 42.719 173.193 C 48.453 179.437 42.355 190.748 56.757 185.52 C 59.324 184.588 47.515 188.367 61.182 195.51 C 81.728 206.248 72.885 192.898 74.889 191.442 C 84.398 184.537 78.777 178.106 72.756 169.36 C 72.133 168.459 69.019 165.472 69.019 164.711 C 69.019 163.47 70.349 166.739 71.154 167.616 C 73.114 169.75 76.18 174.008 79.157 174.008 C 85.593 174.008 85.684 189.779 99.125 180.776 C 109.843 173.597 99.058 165.119 100.497 163.549 C 101.795 162.135 106.521 163.962 107.967 162.386 C 111.722 158.295 99.74 178.218 117.641 182.477 C 135.449 186.714 128.771 165.871 133.042 168.197 C 134.139 168.795 116.917 189.572 129.325 201.226 C 132.213 203.938 150.349 213.005 169.235 200.741 C 181.747 192.616 168.851 168.336 168.851 168.336 C 168.851 168.336 177.304 167.985 178.602 169.401 C 185.41 176.815 184.983 177.039 193.33 174.008 C 196.024 173.03 200.265 171.024 200.265 168.197 L 201.334 167.035 Z"
        transform="matrix(-1, 0, 0, -1, 148.701401, 359.507736)"
    ></path>

    <path id="far-mountains"
        d="M 13.91 235.141 C 13.91 235.141 90.211 290.886 105.758 291.296 C 118.015 291.621 160.895 252.095 169.53 252.183 C 193.24 252.421 277.113 336.198 295.114 337.389 C 310.047 338.377 369.851 279.025 384.104 279.552 C 395.46 279.971 433.313 318.968 433.313 318.968 L 434.835 411.719 L 9.769 410.596 L 13.91 235.141 Z">
    </path>
    <path style="fill: hsl(247, 20%, 52%);"
        d="M 10.843 404.982 C 59.695 395.021 95.541 367.049 112.474 366.759 C 125.832 366.531 166.608 388.95 186.67 388.888 C 212.503 388.808 252.723 363.481 272.329 362.641 C 288.598 361.946 368.959 379.402 384.485 379.031 C 396.857 378.737 469.296 362.68 469.296 362.68 L 470.956 297.341 L 7.894 298.133 C 7.894 298.133 9.524 405.251 10.843 404.982 Z"
        transform="matrix(-1, 0, 0, -1, 478.849981, 709.060059)">
    </path>
    <path style="fill: hsl(244, 18%, 43%);"
        d="M 8.461 386.368 C 57.284 381.882 65.283 387.63 98.506 387.753 C 139.603 387.907 190.609 381.033 230.895 385.277 C 267.715 389.157 280.684 377.15 319.239 381.376 C 345.567 384.261 399.223 388.207 399.223 388.207 L 470.464 386.893 L 472.125 452.055 L 9.355 451.267 C 9.355 451.267 7.12 386.492 8.461 386.368 Z">
    </path>

    <style>
        /* <![CDATA[ */

        #terrain {
            width: 100%;
            height: 100%;
        }

        #sky {
            fill: url(#sky-gradient);
        }

        #sky-gradient {
            --color-stop-1: rgb(193, 177, 255);
            --color-stop-2: rgb(76, 76, 109);
        }

        #far-mountains {
            mix-blend-mode: luminosity;
            fill: #0000002b;
            filter: url(#noise-blur-lite);
        }

        #right-cloud {
            filter: url(#noise-blur);
            opacity: .8;
            fill: url(#gradient-8);
            paint-order: stroke;
            mix-blend-mode: luminosity;
        }

        #left-cloud {
            filter: url(#noise-blur);
            opacity: .4;
            paint-order: stroke;
            fill: url(#gradient-1);
            mix-blend-mode: luminosity;
        }
        /* ]]> */
    </style>
</svg>